<?xml version="1.0" encoding="UTF-8"?>
<svg xmlns="http://www.w3.org/2000/svg" width="820" height="280" viewBox="0 0 820 280">
  <defs>
    <marker id="arrow" markerWidth="10" markerHeight="10" refX="8" refY="3" orient="auto">
      <path d="M0,0 L8,3 L0,6 Z" fill="#852467"/>
    </marker>
  </defs>

  <rect x="40" y="50" width="140" height="80" fill="#f28b97" stroke="#852467" stroke-width="2"/>
  <text x="55" y="85" font-size="13" font-family="sans-serif" fill="#852467">esc1</text>
  <text x="55" y="105" font-size="13" font-family="sans-serif" fill="#852467">addr: 0xA1</text>

  <rect x="220" y="50" width="140" height="80" fill="#f28b97" stroke="#852467" stroke-width="2"/>
  <text x="235" y="85" font-size="13" font-family="sans-serif" fill="#852467">esc2</text>
  <text x="235" y="105" font-size="13" font-family="sans-serif" fill="#852467">addr: 0xB2</text>

  <rect x="420" y="50" width="160" height="80" fill="#f28b97" stroke="#852467" stroke-width="2"/>
  <text x="435" y="80" font-size="13" font-family="sans-serif" fill="#852467">pointer p</text>
  <text x="435" y="100" font-size="13" font-family="sans-serif" fill="#852467">addr: 0xC3</text>
  <text x="435" y="120" font-size="13" font-family="sans-serif" fill="#852467">value: 0xA1</text>

  <rect x="40" y="160" width="160" height="60" fill="#f28b97" stroke="#852467" stroke-width="2"/>
  <text x="55" y="188" font-size="13" font-family="sans-serif" fill="#852467">reference r</text>
  <text x="55" y="208" font-size="13" font-family="sans-serif" fill="#852467">alias esc1</text>

  <path d="M 500 50 Q 360 5 110 50" fill="none" stroke="#852467" stroke-width="2" marker-end="url(#arrow)"/>
  <text x="350" y="18" font-size="13" font-family="sans-serif" fill="#852467">p menunjuk</text>

  <line x1="120" y1="160" x2="120" y2="130" stroke="#852467" stroke-width="2" marker-end="url(#arrow)"/>
  <text x="130" y="182" font-size="13" font-family="sans-serif" fill="#852467">r mengacu</text>

  <text x="40" y="250" font-size="13" font-family="sans-serif" fill="#852467">
    Pointer menyimpan alamat; bisa berubah ke 0xB2.
  </text>
  <text x="40" y="270" font-size="13" font-family="sans-serif" fill="#852467">
    Reference adalah nama lain; selalu ke objek yang sama.
  </text>
</svg>
